ply
format ascii 1.0
comment Created by Blender 2.82 (sub 7) - www.blender.org, source file: ''
element vertex 24
property float x
property float y
property float z
element face 10
property list uchar uint vertex_indices
end_header
-11.061563 1.269082 8.835301   
7.342539 -6.067092 8.835301    
7.342539 1.269082 8.835301     
7.342539 -6.067092 8.835301    
-11.061563 -6.067092 -5.787151 
7.342539 -6.067092 -5.787151   
-11.061563 -6.067092 8.835301  
-11.061563 1.269082 -5.787151  
-11.061563 -6.067092 -5.787151 
7.342539 1.269082 -5.787151    
-11.061563 -6.067092 -5.787151 
-11.061563 1.269082 -5.787151  
7.342539 1.269082 8.835301     
7.342539 -6.067092 -5.787151   
7.342539 1.269082 -5.787151    
-11.061563 1.269082 8.835301   
7.342539 1.269082 -5.787151    
-11.061563 1.269082 -5.787151  
-11.061563 -6.067092 8.835301  
-11.061563 -6.067092 8.835301  
-11.061563 1.269082 8.835301   
7.342539 -6.067092 -5.787151   
7.342539 -6.067092 8.835301    
7.342539 1.269082 8.835301     
3 2 1 0
3 5 4 3
3 8 7 6
3 11 10 9
3 14 13 12
3 1 18 0
3 4 19 3
3 7 20 6
3 10 21 9
3 13 22 12
